<?xml version="1.0" encoding="utf-8"?>
<!-- Generator: Adobe Illustrator 22.0.1, SVG Export Plug-In . SVG Version: 6.00 Build 0)  -->
<svg version="1.1" id="Layer_1" xmlns="http://www.w3.org/2000/svg" xmlns:xlink="http://www.w3.org/1999/xlink" x="0px" y="0px"
	 viewBox="0 0 1200 47.306" style="enable-background:new 0 0 1200 47.306;" xml:space="preserve">
<style type="text/css">
	.st0{fill:#D40E14;}
	.st1{font-family:'TUIType-Bold';}
	.st2{font-size:22.0486px;}
	.st3{fill:#003976;}
	.st4{fill:none;stroke:#D40E14;stroke-width:3;stroke-miterlimit:10;}
	.st5{fill:none;stroke:#003976;stroke-width:3;stroke-miterlimit:10;}
	.st6{fill:none;}
	.st7{fill:#DE2652;}
</style>
<text transform="matrix(1 0 0 1 535.9335 34.6475)" class="st0 st1 st2">INNOV</text>
<text transform="matrix(1 0 0 1 599.9907 34.6475)" class="st3 st1 st2">ATIVES</text>
<line id="line1_4_" vector-effect="non-scaling-stroke" class="st4" x1="538.844" y1="21.935" x2="96.844" y2="22.122"/>
<line id="line2_4_" vector-effect="non-scaling-stroke" class="st5" x1="1102.519" y1="21.935" x2="666.555" y2="21.935"/>
<g>
	<title>Artboard 1</title>
	<path class="st0" d="M99.42,37.749c0.091-0.072,0.163-0.165,0.212-0.271c0.051-0.145,0.074-0.3,0.066-0.454V22.17
		c0.007-0.157-0.016-0.314-0.066-0.462c-0.047-0.103-0.12-0.192-0.212-0.259c-0.224-0.172-0.747-0.259-1.565-0.259
		c-0.819,0-1.349,0.086-1.59,0.259c-0.092,0.066-0.165,0.155-0.212,0.259c-0.047,0.149-0.065,0.306-0.054,0.462v14.863
		c-0.027,0.267,0.068,0.531,0.259,0.721c0.224,0.172,0.755,0.259,1.59,0.259S99.207,37.924,99.42,37.749z M88.338,37.832
		c0.773-0.252,1.483-0.665,2.082-1.216c0.543-0.503,0.96-1.128,1.216-1.824c0.261-0.743,0.391-1.524,0.383-2.311V22.169
		c0.032-0.27-0.063-0.539-0.259-0.729c-0.245-0.172-0.766-0.259-1.565-0.259s-1.33,0.086-1.59,0.259
		c-0.096,0.062-0.171,0.152-0.216,0.259c-0.055,0.15-0.084,0.31-0.083,0.47v10.267c-0.003,0.425-0.074,0.847-0.212,1.249
		c-0.167,0.456-0.498,0.833-0.928,1.057c-0.584,0.303-1.238,0.446-1.894,0.416c-0.471,0.01-0.941-0.056-1.39-0.195
		c-0.352-0.11-0.673-0.3-0.941-0.554c-0.248-0.242-0.433-0.538-0.541-0.866c-0.117-0.359-0.174-0.735-0.17-1.111V22.168
		c0.032-0.27-0.063-0.539-0.259-0.729c-0.245-0.172-0.766-0.259-1.565-0.259s-1.33,0.086-1.59,0.259
		c-0.096,0.062-0.171,0.152-0.216,0.259c-0.044,0.152-0.061,0.312-0.05,0.47v10.309c-0.007,0.787,0.122,1.568,0.383,2.311
		c0.249,0.7,0.659,1.33,1.199,1.84c0.6,0.544,1.31,0.953,2.082,1.199c1.998,0.583,4.122,0.583,6.12,0L88.338,37.832z M70.178,37.749
		c0.089-0.072,0.159-0.164,0.204-0.271c0.048-0.146,0.069-0.3,0.062-0.454V24.348h3.705c0.224,0.006,0.449-0.02,0.666-0.079
		c0.173-0.057,0.316-0.182,0.396-0.346c0.133-0.289,0.22-0.596,0.259-0.912c0.053-0.309,0.084-0.62,0.091-0.933
		c0.005-0.15-0.012-0.301-0.05-0.445c-0.032-0.106-0.101-0.198-0.195-0.259c-0.08-0.046-0.167-0.077-0.259-0.091
		c-0.161-0.023-0.324-0.033-0.487-0.029H63.033c-0.224-0.006-0.449,0.02-0.666,0.079c-0.18,0.053-0.331,0.178-0.416,0.346
		c-0.128,0.251-0.215,0.521-0.259,0.8c-0.061,0.34-0.092,0.684-0.091,1.028c0.001,0.156,0.024,0.313,0.071,0.462
		c0.033,0.108,0.106,0.201,0.204,0.259c0.234,0.101,0.488,0.142,0.741,0.12h4.126v12.669c-0.034,0.274,0.071,0.547,0.279,0.729
		c0.224,0.172,0.755,0.259,1.59,0.259c0.836,0,1.356-0.083,1.561-0.25L70.178,37.749z"/>
	<path class="st0" d="M2.577,12.161h12.986c1.282,0,2.232,0.416,2.607,2.211c0.416,2.01,0.259,3.41-2.015,3.568l-4.08,0.292
		c3.006,18.943,20.533,25.121,30.08,4.708c1.582-3.376,2.082-3.993,3.826-3.564c2.344,0.583,2.665,1.799,1.54,5.191
		C39.282,49.731,11.545,52.254,6.104,18.66l-3.301,0.238C0.108,19.089,0,16.816,0,15.566C-0.008,13.056,0.92,12.161,2.577,12.161z"
		/>
	<circle class="st0" cx="49.765" cy="4.813" r="4.813"/>
</g>
<g id="Layer_5_4_">
	<line class="st6" x1="522.562" y1="20.368" x2="500.043" y2="20.368"/>
</g>
<path id="line1_3_" vector-effect="non-scaling-stroke" class="st4" d="M97.599,21.935"/>
<path id="line1_1_" vector-effect="non-scaling-stroke" class="st4" d="M541.581,21.935"/>
<path id="line2_3_" vector-effect="non-scaling-stroke" class="st5" d="M666.555,21.935"/>
<path id="line2_1_" vector-effect="non-scaling-stroke" class="st5" d="M1102.519,21.935"/>
<g id="Layer_5_3_">
	<line class="st6" x1="522.562" y1="20.368" x2="500.043" y2="20.368"/>
</g>
<g>
	<path class="st7" d="M1096.22,32.121c0.098-0.047,0.11-0.153,0.151-0.235c0.448-0.894,0.895-1.79,1.333-2.689
		c0.07-0.144,0.149-0.205,0.318-0.205c5.337,0.005,10.674,0.004,16.012,0.004c0.035,0,0.07,0.004,0.108,0.006
		c0.024,0.1-0.045,0.168-0.082,0.242c-0.474,0.972-0.957,1.939-1.422,2.915c-0.087,0.181-0.189,0.228-0.38,0.228
		c-5.24-0.009-10.48-0.012-15.72-0.014c-0.105,0-0.211,0.009-0.316,0.014C1096.22,32.298,1096.22,32.209,1096.22,32.121z"/>
	<path class="st3" d="M1169.577,15.563c0.277-0.329,0.536-0.587,0.834-0.804c0.732-0.534,1.572-0.781,2.457-0.846
		c0.887-0.065,1.78-0.051,2.646,0.206c0.81,0.24,1.486,0.672,1.944,1.445c0.213-0.218,0.399-0.443,0.618-0.627
		c0.723-0.605,1.576-0.899,2.505-0.994c1.06-0.109,2.111-0.083,3.125,0.279c1.373,0.491,2.096,1.537,2.122,2.938
		c0.044,2.356,0.017,4.712,0.026,7.069c0.001,0.182-0.043,0.238-0.232,0.237c-1.271-0.008-2.542-0.009-3.812,0
		c-0.191,0.001-0.232-0.058-0.231-0.239c0.006-1.783,0.006-3.565,0.002-5.348c-0.001-0.378-0.001-0.759-0.078-1.131
		c-0.176-0.848-0.592-1.227-1.452-1.295c-0.376-0.03-0.758-0.037-1.129,0.065c-0.783,0.215-1.147,0.782-1.294,1.536
		c-0.07,0.357-0.071,0.719-0.072,1.079c-0.004,1.686-0.006,3.371,0.003,5.057c0.001,0.221-0.059,0.28-0.279,0.278
		c-1.121-0.011-2.242-0.011-3.362,0c-0.216,0.002-0.259-0.067-0.259-0.268c0.004-1.986-0.002-3.971-0.002-5.957
		c0-0.223-0.035-0.438-0.083-0.652c-0.164-0.733-0.678-1.058-1.375-1.132c-0.393-0.041-0.793-0.046-1.182,0.06
		c-0.748,0.205-1.126,0.738-1.277,1.462c-0.075,0.363-0.101,0.732-0.101,1.103c0,1.703-0.004,3.407,0.006,5.11
		c0.001,0.222-0.057,0.276-0.276,0.274c-1.253-0.011-2.506-0.01-3.76-0.001c-0.203,0.002-0.248-0.059-0.248-0.253
		c0.006-3.274,0.006-6.548-0.001-9.822c0-0.215,0.064-0.263,0.268-0.261c1.235,0.009,2.471,0.009,3.707,0
		c0.199-0.002,0.257,0.049,0.248,0.249C1169.564,14.752,1169.577,15.128,1169.577,15.563z"/>
	<path class="st7" d="M1135.24,28.999c0.239,0,0.474,0.04,0.701,0.11c0.425,0.131,0.581,0.44,0.441,0.863
		c-0.047,0.141-0.105,0.28-0.171,0.414c-1.085,2.183-2.208,4.348-3.243,6.554c-0.489,1.042-1.322,1.441-2.338,1.45
		c-4.218,0.036-8.437,0.014-12.656,0.019c-0.218,0-0.207-0.064-0.127-0.223c0.486-0.965,0.971-1.93,1.44-2.903
		c0.085-0.177,0.2-0.183,0.354-0.182c3.469,0.005,6.937,0.006,10.405,0.018c0.229,0.001,0.342-0.072,0.441-0.271
		c0.359-0.725,0.736-1.441,1.106-2.16c0.161-0.314,0.161-0.314-0.182-0.314c-3.389,0-6.778,0-10.167,0c-1.033,0-2.065,0-3.098,0
		c-0.296,0-0.296-0.001-0.16-0.275c0.477-0.961,0.96-1.919,1.427-2.885c0.083-0.172,0.181-0.219,0.362-0.219
		c2.409,0.005,4.818,0.004,7.228,0.004c0.177,0,0.353,0,0.53,0C1127.536,28.997,1132.672,28.999,1135.24,28.999z"/>
	<path class="st3" d="M1158.851,20.099c-1.333,0-2.665,0.006-3.998-0.006c-0.242-0.002-0.288,0.08-0.243,0.29
		c0.04,0.189,0.049,0.385,0.1,0.57c0.216,0.78,0.841,1.275,1.653,1.375c0.589,0.073,1.159,0.038,1.711-0.178
		c0.373-0.146,0.664-0.398,0.84-0.763c0.053-0.109,0.109-0.159,0.236-0.158c1.191,0.004,2.383,0.006,3.574-0.001
		c0.196-0.001,0.192,0.058,0.132,0.215c-0.489,1.274-1.407,2.129-2.629,2.675c-1.143,0.511-2.356,0.668-3.599,0.655
		c-1.081-0.011-2.136-0.157-3.133-0.594c-1.792-0.785-2.825-2.141-3.047-4.096c-0.171-1.506,0.092-2.911,1.034-4.134
		c0.79-1.025,1.864-1.618,3.106-1.908c1.715-0.401,3.426-0.378,5.088,0.236c1.938,0.716,3.078,2.115,3.391,4.171
		c0.069,0.454,0.102,0.91,0.089,1.37c-0.006,0.206-0.066,0.292-0.307,0.289C1161.517,20.09,1160.184,20.099,1158.851,20.099z
		 M1156.834,18.212c0.715,0,1.43-0.007,2.144,0.005c0.198,0.003,0.251-0.065,0.219-0.242c-0.012-0.069-0.013-0.141-0.027-0.209
		c-0.196-0.952-0.741-1.49-1.802-1.658c-1.472-0.233-2.592,0.407-2.856,1.878c-0.04,0.224,0.034,0.229,0.204,0.228
		C1155.422,18.209,1156.128,18.212,1156.834,18.212z"/>
	<path class="st3" d="M1152.999,36.796c-0.61,0.604-1.258,1.108-2.062,1.337c-1.517,0.432-3.029,0.423-4.46-0.311
		c-0.958-0.491-1.442-1.366-1.463-2.409c-0.05-2.47-0.026-4.941-0.036-7.411c-0.001-0.137,0.039-0.18,0.178-0.18
		c1.253,0.005,2.506,0.007,3.759-0.001c0.213-0.001,0.165,0.127,0.165,0.241c0.001,1.818,0.001,3.635,0,5.453
		c0,0.397,0.017,0.791,0.103,1.181c0.147,0.66,0.502,1.028,1.162,1.118c0.417,0.057,0.845,0.057,1.259-0.056
		c0.691-0.189,1.125-0.749,1.239-1.546c0.051-0.352,0.05-0.702,0.05-1.054c0.002-1.685,0.005-3.371-0.004-5.056
		c-0.001-0.207,0.031-0.285,0.265-0.283c1.209,0.014,2.418,0.011,3.626,0.001c0.197-0.002,0.247,0.046,0.246,0.245
		c-0.007,3.283-0.006,6.565-0.001,9.848c0,0.186-0.028,0.255-0.238,0.252c-1.191-0.012-2.382-0.009-3.574-0.002
		c-0.166,0.001-0.229-0.033-0.222-0.214C1153.009,37.565,1152.999,37.18,1152.999,36.796z"/>
	<path class="st3" d="M1128.766,21.321c0.635,0,1.271,0,1.906,0c0.098,0,0.198-0.016,0.223,0.12
		c0.135,0.738,0.666,1.038,1.328,1.167c0.689,0.134,1.38,0.143,2.06-0.071c0.22-0.069,0.426-0.163,0.59-0.333
		c0.359-0.372,0.294-0.853-0.16-1.098c-0.382-0.206-0.807-0.282-1.227-0.37c-1.456-0.305-2.912-0.611-4.3-1.168
		c-0.558-0.224-1.095-0.493-1.505-0.947c-0.695-0.77-0.734-2.069-0.104-2.987c0.468-0.682,1.14-1.085,1.897-1.363
		c1.323-0.486,2.699-0.53,4.086-0.479c1.183,0.043,2.346,0.191,3.434,0.693c0.917,0.424,1.57,1.075,1.786,2.104
		c0.045,0.212-0.019,0.229-0.196,0.229c-1.209-0.005-2.418-0.002-3.627-0.005c-0.085,0-0.191,0.048-0.236-0.098
		c-0.166-0.536-0.585-0.762-1.095-0.865c-0.578-0.117-1.155-0.121-1.72,0.066c-0.256,0.085-0.48,0.223-0.588,0.491
		c-0.147,0.367-0.003,0.69,0.399,0.881c0.471,0.224,0.982,0.313,1.485,0.426c1.348,0.304,2.703,0.584,4.021,1.01
		c0.731,0.236,1.36,0.631,1.744,1.322c0.583,1.051,0.268,2.519-0.682,3.329c-0.823,0.703-1.804,1.031-2.841,1.224
		c-1.22,0.227-2.453,0.267-3.686,0.155c-1.264-0.115-2.502-0.351-3.597-1.058c-0.748-0.483-1.26-1.138-1.463-2.017
		c-0.08-0.35-0.077-0.357,0.267-0.357C1127.566,21.321,1128.166,21.321,1128.766,21.321z"/>
	<path class="st3" d="M1110.514,16.814c-0.41,0-0.814,0-1.218,0c-0.838,0-1.677,0.002-2.515-0.003c-0.081,0-0.193,0.062-0.237-0.088
		c-0.163-0.549-0.589-0.792-1.108-0.886c-0.595-0.108-1.193-0.122-1.762,0.133c-0.387,0.173-0.556,0.509-0.464,0.871
		c0.066,0.26,0.265,0.387,0.486,0.482c0.583,0.253,1.21,0.347,1.822,0.495c1.25,0.302,2.519,0.54,3.719,1.014
		c0.815,0.322,1.425,0.881,1.642,1.763c0.279,1.135-0.207,2.335-1.188,3.034c-0.836,0.596-1.789,0.87-2.786,1.027
		c-1.068,0.168-2.142,0.199-3.216,0.1c-1.23-0.114-2.432-0.348-3.493-1.04c-0.789-0.515-1.296-1.222-1.476-2.156
		c-0.036-0.184,0.005-0.243,0.202-0.242c1.218,0.008,2.436,0.004,3.653,0.005c0.101,0,0.22-0.034,0.247,0.121
		c0.128,0.725,0.64,1.036,1.295,1.167c0.672,0.134,1.346,0.14,2.006-0.076c0.298-0.097,0.57-0.242,0.712-0.545
		c0.18-0.384,0.043-0.731-0.381-0.928c-0.424-0.196-0.883-0.279-1.337-0.377c-1.464-0.314-2.927-0.635-4.294-1.272
		c-0.524-0.244-1.002-0.556-1.324-1.055c-0.538-0.836-0.406-2.165,0.289-2.977c0.666-0.78,1.558-1.148,2.523-1.37
		c1.249-0.287,2.514-0.275,3.784-0.171c0.924,0.076,1.825,0.246,2.666,0.651C1109.733,14.957,1110.37,15.688,1110.514,16.814z"/>
	<path class="st3" d="M1189.792,21.321c0.618,0,1.235,0,1.853,0c0.093,0,0.203-0.028,0.226,0.115
		c0.115,0.717,0.613,1.026,1.26,1.162c0.671,0.141,1.342,0.15,2.005-0.058c0.194-0.061,0.378-0.139,0.531-0.278
		c0.439-0.396,0.369-0.945-0.163-1.2c-0.349-0.167-0.729-0.248-1.105-0.328c-1.422-0.301-2.841-0.612-4.191-1.168
		c-0.548-0.226-1.073-0.498-1.469-0.954c-0.674-0.778-0.713-2.053-0.1-2.973c0.552-0.829,1.383-1.248,2.301-1.525
		c1.295-0.39,2.626-0.386,3.954-0.307c0.999,0.06,1.987,0.231,2.903,0.677c0.912,0.444,1.541,1.115,1.735,2.146
		c0.034,0.18-0.026,0.186-0.165,0.185c-1.191-0.003-2.383-0.001-3.574-0.003c-0.083,0-0.177,0.028-0.214-0.097
		c-0.161-0.539-0.576-0.772-1.086-0.876c-0.516-0.105-1.032-0.101-1.543,0.035c-0.108,0.029-0.213,0.082-0.312,0.136
		c-0.268,0.147-0.416,0.366-0.407,0.684c0.008,0.309,0.193,0.475,0.444,0.596c0.454,0.219,0.946,0.308,1.432,0.42
		c1.312,0.305,2.634,0.579,3.911,1.014c0.857,0.291,1.552,0.794,1.85,1.7c0.382,1.16-0.104,2.476-1.164,3.22
		c-0.825,0.579-1.761,0.85-2.739,1.006c-1.076,0.171-2.16,0.203-3.242,0.101c-1.23-0.115-2.432-0.35-3.492-1.045
		c-0.805-0.528-1.312-1.253-1.479-2.21c-0.026-0.147,0.015-0.182,0.158-0.181C1188.539,21.324,1189.165,21.321,1189.792,21.321z"/>
	<path class="st3" d="M1161.89,35.019c0.618,0,1.235,0.003,1.853-0.002c0.141-0.001,0.2,0.022,0.236,0.186
		c0.146,0.663,0.645,0.968,1.256,1.083c0.633,0.12,1.276,0.133,1.91-0.036c0.232-0.062,0.449-0.155,0.63-0.317
		c0.416-0.374,0.354-0.916-0.142-1.17c-0.457-0.234-0.964-0.308-1.459-0.417c-1.444-0.318-2.891-0.63-4.237-1.271
		c-0.597-0.284-1.132-0.648-1.423-1.277c-0.454-0.982-0.163-2.258,0.691-3.032c0.721-0.654,1.601-0.982,2.536-1.139
		c1.771-0.298,3.542-0.267,5.283,0.208c0.899,0.245,1.704,0.662,2.23,1.483c0.192,0.3,0.3,0.631,0.378,0.976
		c0.03,0.131,0.012,0.189-0.145,0.188c-1.209-0.006-2.418-0.003-3.627-0.003c-0.082,0-0.154-0.001-0.187-0.102
		c-0.175-0.546-0.598-0.776-1.124-0.86c-0.525-0.084-1.052-0.103-1.567,0.063c-0.274,0.088-0.512,0.232-0.616,0.527
		c-0.132,0.372,0.03,0.7,0.448,0.887c0.418,0.186,0.865,0.279,1.308,0.381c1.322,0.302,2.649,0.586,3.939,1.01
		c0.87,0.287,1.607,0.772,1.89,1.688c0.37,1.195,0.004,2.437-1.164,3.263c-0.784,0.555-1.679,0.82-2.61,0.978
		c-1.171,0.198-2.351,0.221-3.529,0.101c-1.176-0.119-2.323-0.365-3.33-1.037c-0.79-0.527-1.305-1.235-1.457-2.192
		c-0.027-0.169,0.025-0.171,0.151-0.17C1160.637,35.021,1161.263,35.019,1161.89,35.019z"/>
	<path class="st3" d="M1146.554,9.909c0,1.344,0.006,2.641-0.006,3.938c-0.002,0.237,0.065,0.296,0.297,0.288
		c0.688-0.022,1.377-0.014,2.065-0.026c0.157-0.003,0.234,0.017,0.228,0.208c-0.018,0.538-0.019,1.077-0.01,1.615
		c0.003,0.192-0.045,0.256-0.249,0.252c-0.697-0.014-1.395,0.001-2.092-0.01c-0.189-0.003-0.237,0.057-0.234,0.239
		c0.024,1.579-0.034,3.159,0.036,4.738c0.033,0.751,0.337,1.084,1.072,1.181c0.264,0.035,0.528,0.046,0.792,0.024
		c0.124-0.01,0.173,0.024,0.172,0.155c-0.005,0.609-0.004,1.218,0,1.827c0.001,0.109-0.032,0.152-0.144,0.169
		c-0.994,0.152-1.991,0.25-2.999,0.169c-0.492-0.039-0.975-0.111-1.438-0.294c-0.884-0.35-1.256-1.077-1.425-1.945
		c-0.116-0.597-0.156-1.203-0.162-1.812c-0.012-1.394-0.029-2.789-0.034-4.183c-0.001-0.205-0.053-0.268-0.265-0.264
		c-0.812,0.013-1.624-0.003-2.436,0.011c-0.205,0.003-0.245-0.061-0.245-0.251c-0.001-0.529-0.019-1.059-0.043-1.588
		c-0.008-0.173,0.042-0.225,0.218-0.223c0.856,0.009,1.712-0.001,2.568,0.008c0.181,0.002,0.242-0.043,0.238-0.233
		c-0.017-0.741-0.016-1.483-0.026-2.224c-0.001-0.109-0.011-0.201,0.123-0.251C1143.874,10.932,1145.189,10.429,1146.554,9.909z"/>
	<path class="st3" d="M1141.632,31.168c0,2.242-0.004,4.484,0.006,6.726c0.001,0.226-0.063,0.272-0.278,0.27
		c-1.2-0.011-2.401-0.01-3.601-0.001c-0.186,0.001-0.232-0.047-0.232-0.232c0.005-4.511,0.006-9.021,0-13.532
		c0-0.198,0.048-0.249,0.246-0.247c1.2,0.01,2.401,0.01,3.601,0c0.209-0.002,0.263,0.054,0.263,0.263
		C1141.629,26.666,1141.632,28.917,1141.632,31.168z"/>
	<path class="st7" d="M1116.79,33.025c-0.412,0.832-0.804,1.625-1.197,2.416c-1.921,3.866-3.845,7.731-5.761,11.599
		c-0.094,0.19-0.195,0.268-0.416,0.266c-1.094-0.013-2.188-0.01-3.282-0.002c-0.214,0.002-0.263-0.033-0.159-0.241
		c2.3-4.619,4.595-9.24,6.89-13.861c0.053-0.107,0.104-0.182,0.251-0.181C1114.325,33.028,1115.534,33.025,1116.79,33.025z"/>
	<path class="st7" d="M1119.184,20.532c0.113-0.046,2.153-4.237,3.135-6.233c0.081-0.164,0.169-0.232,0.356-0.231
		c1.146,0.008,2.291,0.004,3.441,0.004c0.007,0.101-0.061,0.178-0.102,0.261c-2.299,4.595-4.602,9.189-6.896,13.786
		c-0.095,0.19-0.198,0.243-0.4,0.242c-1.111-0.01-2.223-0.005-3.336-0.005c-0.008-0.113,0.059-0.189,0.101-0.274
		c0.566-1.142,1.82-3.622,1.821-3.743c0.171-0.338,0.345-0.674,0.511-1.013C1118.273,22.397,1118.728,21.464,1119.184,20.532z"/>
	<path class="st3" d="M1119.184,20.532c-0.456,0.932-0.911,1.864-1.369,2.795c-0.167,0.339-0.341,0.676-0.511,1.013
		c-0.368-0.534-0.651-1.117-0.968-1.681c-1.567-2.786-3.129-5.575-4.692-8.363c-0.038-0.067-0.071-0.136-0.123-0.237
		c0.111,0,0.194,0,0.278,0c1.209,0.004,2.418,0.013,3.627,0.006c0.198-0.001,0.297,0.071,0.386,0.236
		C1116.932,16.381,1118.059,18.456,1119.184,20.532z"/>
	<path class="st7" d="M1113.284,32.371c0.302-0.609,0.581-1.175,0.861-1.739c0.242-0.489,0.486-0.977,0.727-1.466
		c0.049-0.099,0.094-0.173,0.23-0.172c1.217,0.005,2.433,0.003,3.651,0.003c0.015,0.116-0.056,0.193-0.097,0.275
		c-0.474,0.962-0.956,1.92-1.426,2.883c-0.08,0.163-0.174,0.223-0.36,0.221C1115.691,32.366,1114.51,32.371,1113.284,32.371z"/>
</g>
</svg>
